<svg width="124" height="37" viewBox="0 0 124 37" fill="none" xmlns="http://www.w3.org/2000/svg">
<path d="M49.7161 29.5391H43.4438V28.0774H49.7161C50.4987 28.0774 50.936 27.6401 50.936 26.9841C50.936 26.2706 50.4987 25.9023 49.7161 25.9023H45.8722C44.2955 25.9023 43.3172 24.901 43.3172 23.52C43.3172 22.1734 44.2264 21.1722 45.8952 21.1722H51.9028V22.6338H45.8952C45.2277 22.6338 44.8364 23.0251 44.8364 23.6581C44.8364 24.2911 45.2392 24.6709 45.8837 24.6709H49.7161C51.4079 24.6709 52.3171 25.465 52.3171 27.0877C52.3171 28.4918 51.4654 29.5391 49.7161 29.5391ZM59.4281 29.5391H57.3911C55.0548 29.5391 53.3285 27.6977 53.3285 25.2693C53.3285 22.8064 55.0548 21.1722 57.3911 21.1722H59.4281C61.845 21.1722 63.5253 22.841 63.5253 25.2693C63.5253 27.6977 61.8105 29.5391 59.4281 29.5391ZM57.3911 28.0774H59.4281C60.9703 28.0774 62.0636 26.9151 62.0636 25.3384C62.0636 23.7617 60.9703 22.6338 59.4281 22.6338H57.3911C55.8949 22.6338 54.7901 23.7501 54.7901 25.3384C54.7901 26.9151 55.8834 28.0774 57.3911 28.0774ZM66.1582 29.5391H64.7081V21.1722H71.809V22.6338H66.1582V29.5391ZM71.4637 26.0749H67.2285V24.7974H71.4637V26.0749ZM77.4378 29.5391H75.9762V22.6338H72.7998V21.1722H80.6143V22.6338H77.4378V29.5391ZM89.4383 29.1938L88.1494 26.7424L86.8489 29.1938C86.6877 29.5045 86.4 29.6542 86.1008 29.6542C85.7786 29.6542 85.5139 29.5045 85.3412 29.1938L81.0139 21.1722H82.7633L86.1468 27.6056L87.4128 25.3269L85.2376 21.1722H86.9985L90.2324 27.6056L93.639 21.1722H95.2733L90.946 29.1938C90.7734 29.5045 90.4971 29.6542 90.1864 29.6542C89.8757 29.6542 89.5995 29.5045 89.4383 29.1938ZM104.054 29.5391H102.294L101.039 27.433H97.0801L97.7706 26.2476H100.337L98.4726 23.1172L94.6747 29.5391H93.006L97.8166 21.529C97.9893 21.2412 98.2079 21.0571 98.5302 21.0571C98.8524 21.0571 99.0596 21.2412 99.2322 21.529L104.054 29.5391ZM114.795 29.5391H112.723L110.606 27.2143H107.475V25.9253H110.963C112.01 25.9253 112.562 25.3269 112.562 24.245C112.562 23.1632 111.964 22.6338 110.963 22.6338H106.405V29.5391H104.955V21.1722H110.963C112.873 21.1722 114.001 22.3576 114.001 24.222C114.001 25.6031 113.356 26.5813 112.275 26.9956L114.795 29.5391ZM123.034 29.5391H115.553V21.1722H123.023V22.6338H117.004V28.0774H123.034V29.5391ZM122.712 25.9023H118.074V24.6709H122.712V25.9023Z" fill="white"/>
<path d="M49.7825 16.0078H43.5102V14.5462H49.7825C50.5651 14.5462 51.0024 14.1089 51.0024 13.4529C51.0024 12.7393 50.5651 12.371 49.7825 12.371H45.9386C44.3619 12.371 43.3836 11.3698 43.3836 9.98872C43.3836 8.6422 44.2928 7.64093 45.9616 7.64093H51.9692V9.10255H45.9616C45.2941 9.10255 44.9028 9.49385 44.9028 10.1268C44.9028 10.7598 45.3056 11.1396 45.9501 11.1396H49.7825C51.4743 11.1396 52.3835 11.9337 52.3835 13.5564C52.3835 14.9605 51.5318 16.0078 49.7825 16.0078ZM55.1788 16.0078H53.7171V7.64093H55.1788V16.0078ZM66.5448 16.0078H64.4733L62.3556 13.683H59.2253V12.3941H62.7124C63.7597 12.3941 64.3121 11.7956 64.3121 10.7138C64.3121 9.63195 63.7137 9.10255 62.7124 9.10255H58.1549V16.0078H56.7048V7.64093H62.7124C64.6229 7.64093 65.7507 8.82634 65.7507 10.6908C65.7507 12.0718 65.1062 13.0501 64.0244 13.4644L66.5448 16.0078ZM68.8454 16.0078H67.3838V7.64093H68.8454V16.0078ZM77.8522 12.3135V7.64093H79.2793V12.3135C79.2793 14.903 78.0018 16.1229 74.7563 16.1229C71.5339 16.1229 70.2449 14.903 70.2449 12.3135V7.64093H71.7526V12.3135C71.7526 13.9938 72.5006 14.6843 74.8024 14.6843C77.1041 14.6843 77.8522 13.9938 77.8522 12.3135ZM86.8713 16.0078H80.599V14.5462H86.8713C87.6539 14.5462 88.0912 14.1089 88.0912 13.4529C88.0912 12.7393 87.6539 12.371 86.8713 12.371H83.0274C81.4507 12.371 80.4724 11.3698 80.4724 9.98872C80.4724 8.6422 81.3816 7.64093 83.0504 7.64093H89.058V9.10255H83.0504C82.3829 9.10255 81.9916 9.49385 81.9916 10.1268C81.9916 10.7598 82.3944 11.1396 83.0389 11.1396H86.8713C88.5631 11.1396 89.4723 11.9337 89.4723 13.5564C89.4723 14.9605 88.6206 16.0078 86.8713 16.0078Z" fill="white"/>
<path d="M16.582 22.8983L27.5979 19.5569L18.4637 10.5625L16.582 22.8983Z" stroke="url(#paint0_linear_2797_21982)" stroke-width="1.1787" stroke-linecap="round" stroke-linejoin="round"/>
<path d="M34.2258 10.5625L27.5977 19.5569L36.9675 19.0146L34.2258 10.5625Z" stroke="url(#paint1_linear_2797_21982)" stroke-width="1.1787" stroke-linecap="round" stroke-linejoin="round"/>
<path d="M28.8302 3.74219L27.5977 19.559L34.2258 10.5646L28.8302 3.74219Z" stroke="url(#paint2_linear_2797_21982)" stroke-width="1.1787" stroke-linecap="round" stroke-linejoin="round"/>
<path d="M18.4609 10.5646L28.8277 3.74219L27.5952 19.559L18.4609 10.5646Z" stroke="url(#paint3_linear_2797_21982)" stroke-width="1.1787" stroke-linecap="round" stroke-linejoin="round"/>
<path d="M21.2628 1L11.8984 1.6628L18.4609 10.5668L21.2628 1Z" stroke="url(#paint4_linear_2797_21982)" stroke-width="1.1787" stroke-linecap="round" stroke-linejoin="round"/>
<path d="M21.2628 1L28.8277 3.74432L18.4609 10.5668L21.2628 1Z" stroke="url(#paint5_linear_2797_21982)" stroke-width="1.1787" stroke-linecap="round" stroke-linejoin="round"/>
<path d="M11.9012 1.66406L4.80469 7.81277L18.4636 10.5681L11.9012 1.66406Z" stroke="url(#paint6_linear_2797_21982)" stroke-width="1.1787" stroke-linecap="round" stroke-linejoin="round"/>
<path d="M14.5196 16.2098L18.4636 10.5678L4.80469 7.8125L14.5196 16.2098Z" stroke="url(#paint7_linear_2797_21982)" stroke-width="1.1787" stroke-linecap="round" stroke-linejoin="round"/>
<path d="M8.02032 25.5L6.60156 32.4265L13.6077 36.2527L8.02032 25.5Z" stroke="url(#paint8_linear_2797_21982)" stroke-width="1.1787" stroke-linecap="round" stroke-linejoin="round"/>
<path d="M8.01953 25.4949L13.6069 36.2476L16.5786 22.8984L8.01953 25.4949Z" stroke="url(#paint9_linear_2797_21982)" stroke-width="1.1787" stroke-linecap="round" stroke-linejoin="round"/>
<path d="M13.6055 36.2563L20.0611 28.5547L23.3122 36.2563H13.6055Z" stroke="url(#paint10_linear_2797_21982)" stroke-width="1.1787" stroke-linecap="round" stroke-linejoin="round"/>
<path d="M20.0625 28.5547L23.3136 36.2563C23.3136 36.2563 31.1277 31.677 30.9086 31.8851L20.0625 28.5547Z" stroke="url(#paint11_linear_2797_21982)" stroke-width="1.1787" stroke-linecap="round" stroke-linejoin="round"/>
<path d="M20.0625 28.5514L27.5945 19.5625L30.9086 31.8846L20.0625 28.5514Z" stroke="url(#paint12_linear_2797_21982)" stroke-width="1.1787" stroke-linecap="round" stroke-linejoin="round"/>
<path d="M27.5977 19.5579L30.9117 31.88L36.9675 19.0156L27.5977 19.5579Z" stroke="url(#paint13_linear_2797_21982)" stroke-width="1.1787" stroke-linecap="round" stroke-linejoin="round"/>
<path d="M18.4604 10.5625L12.1719 19.5569L16.5788 22.8983L18.4604 10.5625Z" stroke="url(#paint14_linear_2797_21982)" stroke-width="1.1787" stroke-linecap="round" stroke-linejoin="round"/>
<path d="M8.01953 25.5003L12.1717 19.5625L16.5786 22.9039L8.01953 25.5003Z" stroke="url(#paint15_linear_2797_21982)" stroke-width="1.1787" stroke-linecap="round" stroke-linejoin="round"/>
<path d="M16.582 22.9039L20.0659 28.5514L27.5979 19.5625L16.582 22.9039Z" stroke="url(#paint16_linear_2797_21982)" stroke-width="1.1787" stroke-linecap="round" stroke-linejoin="round"/>
<path d="M16.5772 22.8984L13.6055 36.2476L20.0611 28.5459L16.5772 22.8984Z" stroke="url(#paint17_linear_2797_21982)" stroke-width="1.1787" stroke-linecap="round" stroke-linejoin="round"/>
<path d="M4.80469 7.8125L11.2302 20.9124L14.5196 16.2098L4.80469 7.8125Z" stroke="url(#paint18_linear_2797_21982)" stroke-width="1.1787" stroke-linecap="round" stroke-linejoin="round"/>
<path d="M1 15.0625L1.85728 25.7193L5.08919 21.7535L9.17838 16.7332" stroke="url(#paint19_linear_2797_21982)" stroke-width="1.1787" stroke-linecap="round" stroke-linejoin="round"/>
<path d="M9.17516 16.7344L5.77344 20.9111H11.2239L9.17516 16.7344Z" stroke="url(#paint20_linear_2797_21982)" stroke-width="1.1787" stroke-linecap="round" stroke-linejoin="round"/>
<path d="M5.77344 20.9062H11.2239L8.0166 25.4938L5.77344 20.9062Z" stroke="url(#paint21_linear_2797_21982)" stroke-width="1.1787" stroke-linecap="round" stroke-linejoin="round"/>
<path d="M8.01801 25.4938L5.77485 20.9062L1.85547 25.7157L8.01801 25.4938Z" stroke="url(#paint22_linear_2797_21982)" stroke-width="1.1787" stroke-linecap="round" stroke-linejoin="round"/>
<path d="M1.85547 25.7218L8.01801 25.5L6.59926 32.4265L1.85547 25.7218Z" stroke="url(#paint23_linear_2797_21982)" stroke-width="1.1787" stroke-linecap="round" stroke-linejoin="round"/>
<path d="M4.80161 7.8125L1 15.065L9.17838 16.7357L4.80161 7.8125Z" stroke="url(#paint24_linear_2797_21982)" stroke-width="1.1787" stroke-linecap="round" stroke-linejoin="round"/>
<defs>
<linearGradient id="paint0_linear_2797_21982" x1="22.09" y1="10.5625" x2="22.09" y2="22.8983" gradientUnits="userSpaceOnUse">
<stop stop-color="#789FEC"/>
<stop offset="0.776042" stop-color="#8DC5DE"/>
<stop offset="1" stop-color="#94D2ED"/>
</linearGradient>
<linearGradient id="paint1_linear_2797_21982" x1="32.2826" y1="10.5625" x2="32.2826" y2="19.5569" gradientUnits="userSpaceOnUse">
<stop stop-color="#789FEC"/>
<stop offset="0.776042" stop-color="#8DC5DE"/>
<stop offset="1" stop-color="#94D2ED"/>
</linearGradient>
<linearGradient id="paint2_linear_2797_21982" x1="30.9117" y1="3.74219" x2="30.9117" y2="19.559" gradientUnits="userSpaceOnUse">
<stop stop-color="#789FEC"/>
<stop offset="0.776042" stop-color="#8DC5DE"/>
<stop offset="1" stop-color="#94D2ED"/>
</linearGradient>
<linearGradient id="paint3_linear_2797_21982" x1="23.6443" y1="3.74219" x2="23.6443" y2="19.559" gradientUnits="userSpaceOnUse">
<stop stop-color="#789FEC"/>
<stop offset="0.776042" stop-color="#8DC5DE"/>
<stop offset="1" stop-color="#94D2ED"/>
</linearGradient>
<linearGradient id="paint4_linear_2797_21982" x1="16.5806" y1="1" x2="16.5806" y2="10.5668" gradientUnits="userSpaceOnUse">
<stop stop-color="#789FEC"/>
<stop offset="0.776042" stop-color="#8DC5DE"/>
<stop offset="1" stop-color="#94D2ED"/>
</linearGradient>
<linearGradient id="paint5_linear_2797_21982" x1="23.6443" y1="1" x2="23.6443" y2="10.5668" gradientUnits="userSpaceOnUse">
<stop stop-color="#789FEC"/>
<stop offset="0.776042" stop-color="#8DC5DE"/>
<stop offset="1" stop-color="#94D2ED"/>
</linearGradient>
<linearGradient id="paint6_linear_2797_21982" x1="11.6342" y1="1.66406" x2="11.6342" y2="10.5681" gradientUnits="userSpaceOnUse">
<stop stop-color="#789FEC"/>
<stop offset="0.776042" stop-color="#8DC5DE"/>
<stop offset="1" stop-color="#94D2ED"/>
</linearGradient>
<linearGradient id="paint7_linear_2797_21982" x1="11.6342" y1="7.8125" x2="11.6342" y2="16.2098" gradientUnits="userSpaceOnUse">
<stop stop-color="#789FEC"/>
<stop offset="0.776042" stop-color="#8DC5DE"/>
<stop offset="1" stop-color="#94D2ED"/>
</linearGradient>
<linearGradient id="paint8_linear_2797_21982" x1="10.1046" y1="25.5" x2="10.1046" y2="36.2527" gradientUnits="userSpaceOnUse">
<stop stop-color="#789FEC"/>
<stop offset="0.776042" stop-color="#8DC5DE"/>
<stop offset="1" stop-color="#94D2ED"/>
</linearGradient>
<linearGradient id="paint9_linear_2797_21982" x1="12.2991" y1="22.8984" x2="12.2991" y2="36.2476" gradientUnits="userSpaceOnUse">
<stop stop-color="#789FEC"/>
<stop offset="0.776042" stop-color="#8DC5DE"/>
<stop offset="1" stop-color="#94D2ED"/>
</linearGradient>
<linearGradient id="paint10_linear_2797_21982" x1="18.4588" y1="28.5547" x2="18.4588" y2="36.2563" gradientUnits="userSpaceOnUse">
<stop stop-color="#789FEC"/>
<stop offset="0.776042" stop-color="#8DC5DE"/>
<stop offset="1" stop-color="#94D2ED"/>
</linearGradient>
<linearGradient id="paint11_linear_2797_21982" x1="25.4878" y1="28.5547" x2="25.4878" y2="36.2563" gradientUnits="userSpaceOnUse">
<stop stop-color="#789FEC"/>
<stop offset="0.776042" stop-color="#8DC5DE"/>
<stop offset="1" stop-color="#94D2ED"/>
</linearGradient>
<linearGradient id="paint12_linear_2797_21982" x1="25.4855" y1="19.5625" x2="25.4855" y2="31.8846" gradientUnits="userSpaceOnUse">
<stop stop-color="#789FEC"/>
<stop offset="0.776042" stop-color="#8DC5DE"/>
<stop offset="1" stop-color="#94D2ED"/>
</linearGradient>
<linearGradient id="paint13_linear_2797_21982" x1="32.2826" y1="19.0156" x2="32.2826" y2="31.88" gradientUnits="userSpaceOnUse">
<stop stop-color="#789FEC"/>
<stop offset="0.776042" stop-color="#8DC5DE"/>
<stop offset="1" stop-color="#94D2ED"/>
</linearGradient>
<linearGradient id="paint14_linear_2797_21982" x1="15.3161" y1="10.5625" x2="15.3161" y2="22.8983" gradientUnits="userSpaceOnUse">
<stop stop-color="#789FEC"/>
<stop offset="0.776042" stop-color="#8DC5DE"/>
<stop offset="1" stop-color="#94D2ED"/>
</linearGradient>
<linearGradient id="paint15_linear_2797_21982" x1="12.2991" y1="19.5625" x2="12.2991" y2="25.5003" gradientUnits="userSpaceOnUse">
<stop stop-color="#789FEC"/>
<stop offset="0.776042" stop-color="#8DC5DE"/>
<stop offset="1" stop-color="#94D2ED"/>
</linearGradient>
<linearGradient id="paint16_linear_2797_21982" x1="22.09" y1="19.5625" x2="22.09" y2="28.5514" gradientUnits="userSpaceOnUse">
<stop stop-color="#789FEC"/>
<stop offset="0.776042" stop-color="#8DC5DE"/>
<stop offset="1" stop-color="#94D2ED"/>
</linearGradient>
<linearGradient id="paint17_linear_2797_21982" x1="16.8333" y1="22.8984" x2="16.8333" y2="36.2476" gradientUnits="userSpaceOnUse">
<stop stop-color="#789FEC"/>
<stop offset="0.776042" stop-color="#8DC5DE"/>
<stop offset="1" stop-color="#94D2ED"/>
</linearGradient>
<linearGradient id="paint18_linear_2797_21982" x1="9.66214" y1="7.8125" x2="9.66214" y2="20.9124" gradientUnits="userSpaceOnUse">
<stop stop-color="#789FEC"/>
<stop offset="0.776042" stop-color="#8DC5DE"/>
<stop offset="1" stop-color="#94D2ED"/>
</linearGradient>
<linearGradient id="paint19_linear_2797_21982" x1="5.08919" y1="15.0625" x2="5.08919" y2="25.7193" gradientUnits="userSpaceOnUse">
<stop stop-color="#789FEC"/>
<stop offset="0.776042" stop-color="#8DC5DE"/>
<stop offset="1" stop-color="#94D2ED"/>
</linearGradient>
<linearGradient id="paint20_linear_2797_21982" x1="8.49865" y1="16.7344" x2="8.49865" y2="20.9111" gradientUnits="userSpaceOnUse">
<stop stop-color="#789FEC"/>
<stop offset="0.776042" stop-color="#8DC5DE"/>
<stop offset="1" stop-color="#94D2ED"/>
</linearGradient>
<linearGradient id="paint21_linear_2797_21982" x1="8.49865" y1="20.9062" x2="8.49865" y2="25.4938" gradientUnits="userSpaceOnUse">
<stop stop-color="#789FEC"/>
<stop offset="0.776042" stop-color="#8DC5DE"/>
<stop offset="1" stop-color="#94D2ED"/>
</linearGradient>
<linearGradient id="paint22_linear_2797_21982" x1="4.93674" y1="20.9062" x2="4.93674" y2="25.7157" gradientUnits="userSpaceOnUse">
<stop stop-color="#789FEC"/>
<stop offset="0.776042" stop-color="#8DC5DE"/>
<stop offset="1" stop-color="#94D2ED"/>
</linearGradient>
<linearGradient id="paint23_linear_2797_21982" x1="4.93674" y1="25.5" x2="4.93674" y2="32.4265" gradientUnits="userSpaceOnUse">
<stop stop-color="#789FEC"/>
<stop offset="0.776042" stop-color="#8DC5DE"/>
<stop offset="1" stop-color="#94D2ED"/>
</linearGradient>
<linearGradient id="paint24_linear_2797_21982" x1="5.08919" y1="7.8125" x2="5.08919" y2="16.7357" gradientUnits="userSpaceOnUse">
<stop stop-color="#789FEC"/>
<stop offset="0.776042" stop-color="#8DC5DE"/>
<stop offset="1" stop-color="#94D2ED"/>
</linearGradient>
</defs>
</svg>
